<mxfile host="app.diagrams.net" modified="2023-07-22T06:09:42.085Z" agent="Mozilla/5.0 (Windows NT 10.0; Win64; x64; rv:109.0) Gecko/20100101 Firefox/115.0" etag="hkVw13XYP-srbMjtGK7w" version="21.6.5" type="device">
  <diagram name="페이지-1" id="_5OflvoEEPCfNNY2wzV2">
    <mxGraphModel dx="3088" dy="1951" grid="1" gridSize="10" guides="1" tooltips="1" connect="1" arrows="1" fold="1" page="1" pageScale="1" pageWidth="827" pageHeight="1169" math="0" shadow="0">
      <root>
        <mxCell id="0" />
        <mxCell id="1" parent="0" />
        <mxCell id="0qQAYpP3KVAneEx59sd1-5" style="edgeStyle=orthogonalEdgeStyle;rounded=0;orthogonalLoop=1;jettySize=auto;html=1;entryX=1;entryY=0.5;entryDx=0;entryDy=0;" parent="1" source="0qQAYpP3KVAneEx59sd1-1" target="0qQAYpP3KVAneEx59sd1-2" edge="1">
          <mxGeometry relative="1" as="geometry" />
        </mxCell>
        <mxCell id="0qQAYpP3KVAneEx59sd1-28" style="edgeStyle=orthogonalEdgeStyle;rounded=0;orthogonalLoop=1;jettySize=auto;html=1;entryX=0;entryY=0.5;entryDx=0;entryDy=0;" parent="1" source="0qQAYpP3KVAneEx59sd1-1" target="4ovjFaTYSwnEynzdkDj6-17" edge="1">
          <mxGeometry relative="1" as="geometry">
            <Array as="points">
              <mxPoint x="640" y="510" />
              <mxPoint x="640" y="-240" />
              <mxPoint x="836" y="-240" />
            </Array>
            <mxPoint x="680" y="-50" as="targetPoint" />
          </mxGeometry>
        </mxCell>
        <mxCell id="0qQAYpP3KVAneEx59sd1-60" style="edgeStyle=orthogonalEdgeStyle;rounded=0;orthogonalLoop=1;jettySize=auto;html=1;exitX=0.75;exitY=1;exitDx=0;exitDy=0;entryX=0;entryY=0.5;entryDx=0;entryDy=0;" parent="1" source="0qQAYpP3KVAneEx59sd1-1" target="0qQAYpP3KVAneEx59sd1-59" edge="1">
          <mxGeometry relative="1" as="geometry" />
        </mxCell>
        <mxCell id="0qQAYpP3KVAneEx59sd1-108" value="" style="edgeStyle=orthogonalEdgeStyle;rounded=0;orthogonalLoop=1;jettySize=auto;html=1;" parent="1" source="0qQAYpP3KVAneEx59sd1-1" target="0qQAYpP3KVAneEx59sd1-107" edge="1">
          <mxGeometry relative="1" as="geometry" />
        </mxCell>
        <mxCell id="4ovjFaTYSwnEynzdkDj6-115" style="edgeStyle=orthogonalEdgeStyle;rounded=0;orthogonalLoop=1;jettySize=auto;html=1;exitX=1;exitY=0.75;exitDx=0;exitDy=0;entryX=0;entryY=0.617;entryDx=0;entryDy=0;entryPerimeter=0;fontSize=13;endArrow=classic;endFill=1;" parent="1" source="0qQAYpP3KVAneEx59sd1-1" target="4ovjFaTYSwnEynzdkDj6-114" edge="1">
          <mxGeometry relative="1" as="geometry" />
        </mxCell>
        <mxCell id="0qQAYpP3KVAneEx59sd1-1" value="&lt;div&gt;향소산 2-017&lt;/div&gt;&lt;div&gt;감기, 소화불량, 흉비&lt;br&gt;&lt;/div&gt;" style="rounded=0;whiteSpace=wrap;html=1;strokeWidth=2;fillColor=#fff2cc;strokeColor=#d6b656;" parent="1" vertex="1">
          <mxGeometry x="143" y="480" width="120" height="60" as="geometry" />
        </mxCell>
        <mxCell id="0qQAYpP3KVAneEx59sd1-11" value="" style="edgeStyle=orthogonalEdgeStyle;rounded=0;orthogonalLoop=1;jettySize=auto;html=1;" parent="1" source="0qQAYpP3KVAneEx59sd1-2" target="0qQAYpP3KVAneEx59sd1-10" edge="1">
          <mxGeometry relative="1" as="geometry" />
        </mxCell>
        <mxCell id="0qQAYpP3KVAneEx59sd1-2" value="&lt;div&gt;궁지향소산&lt;/div&gt;&lt;div&gt;: 감기, 두통, 음인&lt;br&gt;&lt;/div&gt;" style="rounded=0;whiteSpace=wrap;html=1;" parent="1" vertex="1">
          <mxGeometry x="23" y="280" width="120" height="60" as="geometry" />
        </mxCell>
        <mxCell id="0qQAYpP3KVAneEx59sd1-3" value="&lt;div&gt;이향산 2-034&lt;/div&gt;&lt;div&gt;: 향소산 + 향유산&amp;nbsp; &lt;br&gt;&lt;/div&gt;&lt;div&gt;식적, 감모, 상서&lt;/div&gt;" style="rounded=0;whiteSpace=wrap;html=1;" parent="1" vertex="1">
          <mxGeometry x="263" y="280" width="120" height="60" as="geometry" />
        </mxCell>
        <mxCell id="0qQAYpP3KVAneEx59sd1-7" value="" style="endArrow=classic;html=1;rounded=0;entryX=0;entryY=0.5;entryDx=0;entryDy=0;exitX=0.5;exitY=0;exitDx=0;exitDy=0;" parent="1" source="0qQAYpP3KVAneEx59sd1-1" edge="1">
          <mxGeometry width="50" height="50" relative="1" as="geometry">
            <mxPoint x="209" y="480" as="sourcePoint" />
            <mxPoint x="263" y="310" as="targetPoint" />
            <Array as="points">
              <mxPoint x="203" y="310" />
            </Array>
          </mxGeometry>
        </mxCell>
        <mxCell id="0qQAYpP3KVAneEx59sd1-9" value="加 천궁, 백지" style="text;html=1;align=center;verticalAlign=middle;resizable=0;points=[];autosize=1;strokeColor=none;fillColor=none;" parent="1" vertex="1">
          <mxGeometry x="109" y="390" width="90" height="30" as="geometry" />
        </mxCell>
        <mxCell id="0qQAYpP3KVAneEx59sd1-16" value="" style="edgeStyle=orthogonalEdgeStyle;rounded=0;orthogonalLoop=1;jettySize=auto;html=1;" parent="1" source="0qQAYpP3KVAneEx59sd1-10" target="0qQAYpP3KVAneEx59sd1-15" edge="1">
          <mxGeometry relative="1" as="geometry">
            <Array as="points">
              <mxPoint x="83" y="-50" />
            </Array>
          </mxGeometry>
        </mxCell>
        <mxCell id="0qQAYpP3KVAneEx59sd1-10" value="&lt;div&gt;향갈탕 2-020&lt;br&gt;&lt;/div&gt;" style="rounded=0;whiteSpace=wrap;html=1;fillColor=#f8cecc;strokeColor=#b85450;" parent="1" vertex="1">
          <mxGeometry x="23" y="140" width="120" height="60" as="geometry" />
        </mxCell>
        <mxCell id="0qQAYpP3KVAneEx59sd1-12" value="+ 승마갈근탕" style="text;html=1;strokeColor=none;fillColor=none;align=center;verticalAlign=middle;whiteSpace=wrap;rounded=0;" parent="1" vertex="1">
          <mxGeometry x="-1" y="230" width="80" height="30" as="geometry" />
        </mxCell>
        <mxCell id="0qQAYpP3KVAneEx59sd1-15" value="십신탕 2-018" style="rounded=0;whiteSpace=wrap;html=1;" parent="1" vertex="1">
          <mxGeometry x="-91" y="-80" width="120" height="60" as="geometry" />
        </mxCell>
        <mxCell id="0qQAYpP3KVAneEx59sd1-17" value="(갈근)십신탕 2-022" style="rounded=0;whiteSpace=wrap;html=1;" parent="1" vertex="1">
          <mxGeometry x="-91" width="120" height="60" as="geometry" />
        </mxCell>
        <mxCell id="0qQAYpP3KVAneEx59sd1-19" value="" style="endArrow=classic;html=1;rounded=0;entryX=1;entryY=0.5;entryDx=0;entryDy=0;exitX=0.5;exitY=0;exitDx=0;exitDy=0;" parent="1" source="0qQAYpP3KVAneEx59sd1-10" target="0qQAYpP3KVAneEx59sd1-17" edge="1">
          <mxGeometry width="50" height="50" relative="1" as="geometry">
            <mxPoint x="79" y="30" as="sourcePoint" />
            <mxPoint x="129" y="60" as="targetPoint" />
            <Array as="points">
              <mxPoint x="83" y="30" />
            </Array>
          </mxGeometry>
        </mxCell>
        <mxCell id="0qQAYpP3KVAneEx59sd1-20" value="+ 마황 (表實) **" style="text;html=1;strokeColor=none;fillColor=none;align=center;verticalAlign=middle;whiteSpace=wrap;rounded=0;" parent="1" vertex="1">
          <mxGeometry x="79" y="-20" width="105" height="30" as="geometry" />
        </mxCell>
        <mxCell id="0qQAYpP3KVAneEx59sd1-21" value="&lt;div&gt;① 태음몸살감기&lt;/div&gt;&lt;div&gt;② 코막힘/ 비염&lt;/div&gt;&lt;div&gt;③항강통&lt;br&gt;&lt;/div&gt;" style="text;html=1;strokeColor=none;fillColor=none;align=left;verticalAlign=middle;whiteSpace=wrap;rounded=0;fontStyle=1" parent="1" vertex="1">
          <mxGeometry x="-91" y="50" width="180" height="80" as="geometry" />
        </mxCell>
        <mxCell id="0qQAYpP3KVAneEx59sd1-22" value="" style="endArrow=none;html=1;rounded=0;entryX=0;entryY=0.5;entryDx=0;entryDy=0;exitX=0.008;exitY=0.617;exitDx=0;exitDy=0;exitPerimeter=0;" parent="1" source="0qQAYpP3KVAneEx59sd1-17" target="0qQAYpP3KVAneEx59sd1-15" edge="1">
          <mxGeometry width="50" height="50" relative="1" as="geometry">
            <mxPoint x="-121" y="90" as="sourcePoint" />
            <mxPoint x="-71" y="40" as="targetPoint" />
            <Array as="points">
              <mxPoint x="-111" y="37" />
              <mxPoint x="-111" y="-10" />
              <mxPoint x="-111" y="-50" />
            </Array>
          </mxGeometry>
        </mxCell>
        <mxCell id="0qQAYpP3KVAneEx59sd1-24" value="&lt;div&gt;① + 승마갈근탕&lt;br&gt;&lt;/div&gt;&lt;div&gt;② 태음인감기, 비염, 신체통&lt;br&gt;&lt;/div&gt;&lt;div&gt;③&lt;br&gt;&lt;/div&gt;" style="text;html=1;strokeColor=none;fillColor=none;align=left;verticalAlign=middle;whiteSpace=wrap;rounded=0;" parent="1" vertex="1">
          <mxGeometry x="149" y="155" width="171" height="30" as="geometry" />
        </mxCell>
        <mxCell id="0qQAYpP3KVAneEx59sd1-32" value="" style="edgeStyle=orthogonalEdgeStyle;rounded=0;orthogonalLoop=1;jettySize=auto;html=1;startArrow=classic;startFill=1;" parent="1" source="0qQAYpP3KVAneEx59sd1-26" target="0qQAYpP3KVAneEx59sd1-31" edge="1">
          <mxGeometry relative="1" as="geometry" />
        </mxCell>
        <mxCell id="0qQAYpP3KVAneEx59sd1-26" value="&lt;p&gt;②정전가미이진탕 3-071&lt;/p&gt;&lt;p&gt;:식적,급담, 보기, 소식, 행기 :월국환 방의&lt;br&gt;&lt;/p&gt;" style="rounded=0;whiteSpace=wrap;html=1;" parent="1" vertex="1">
          <mxGeometry x="836" y="-192" width="140" height="60" as="geometry" />
        </mxCell>
        <mxCell id="4ovjFaTYSwnEynzdkDj6-31" value="" style="edgeStyle=orthogonalEdgeStyle;rounded=0;orthogonalLoop=1;jettySize=auto;html=1;fontSize=13;" parent="1" source="0qQAYpP3KVAneEx59sd1-27" target="4ovjFaTYSwnEynzdkDj6-30" edge="1">
          <mxGeometry relative="1" as="geometry" />
        </mxCell>
        <mxCell id="0qQAYpP3KVAneEx59sd1-27" value="③&lt;span&gt;&amp;nbsp;향사평위산 3-024&lt;/span&gt;" style="rounded=0;whiteSpace=wrap;html=1;" parent="1" vertex="1">
          <mxGeometry x="836" y="-86" width="120" height="60" as="geometry" />
        </mxCell>
        <mxCell id="0qQAYpP3KVAneEx59sd1-29" value="&lt;p style=&quot;font-size: 12px; line-height: 90%;&quot; align=&quot;center&quot;&gt;&lt;font style=&quot;font-size: 12px;&quot;&gt;④ 보화환 3-039&lt;/font&gt;&lt;/p&gt;&lt;p style=&quot;line-height: 90%; font-size: 12px;&quot; align=&quot;center&quot;&gt;&lt;font style=&quot;font-size: 12px;&quot;&gt;:속쓰림 + 소화불량&lt;/font&gt;&lt;/p&gt;&lt;p style=&quot;font-size: 12px; line-height: 90%;&quot; align=&quot;center&quot;&gt;&lt;font style=&quot;font-size: 12px;&quot;&gt;증미이진탕보다 약한 염증&lt;font style=&quot;font-size: 12px;&quot;&gt;&lt;font style=&quot;font-size: 12px;&quot;&gt;&lt;br&gt;&lt;/font&gt;&lt;/font&gt;&lt;/font&gt;&lt;/p&gt;" style="rounded=0;whiteSpace=wrap;html=1;align=left;fontSize=11;verticalAlign=middle;" parent="1" vertex="1">
          <mxGeometry x="836" y="48" width="160" height="60" as="geometry" />
        </mxCell>
        <mxCell id="4ovjFaTYSwnEynzdkDj6-21" value="" style="edgeStyle=orthogonalEdgeStyle;rounded=0;orthogonalLoop=1;jettySize=auto;html=1;" parent="1" source="0qQAYpP3KVAneEx59sd1-30" target="4ovjFaTYSwnEynzdkDj6-20" edge="1">
          <mxGeometry relative="1" as="geometry" />
        </mxCell>
        <mxCell id="0qQAYpP3KVAneEx59sd1-30" value="&lt;div&gt;향소산 + ??? + 사군자탕 + 평위산 + 백두구,인지인, 목향&lt;/div&gt;&lt;div align=&quot;left&quot;&gt;(보기, 거담, 행기)&lt;br&gt;&lt;/div&gt;" style="text;html=1;strokeColor=none;fillColor=none;align=center;verticalAlign=middle;whiteSpace=wrap;rounded=0;" parent="1" vertex="1">
          <mxGeometry x="983" y="-257" width="310" height="30" as="geometry" />
        </mxCell>
        <mxCell id="0qQAYpP3KVAneEx59sd1-31" value="증미이진탕 3-032" style="rounded=0;whiteSpace=wrap;html=1;" parent="1" vertex="1">
          <mxGeometry x="1087" y="-192" width="120" height="60" as="geometry" />
        </mxCell>
        <mxCell id="4ovjFaTYSwnEynzdkDj6-42" value="" style="edgeStyle=orthogonalEdgeStyle;rounded=0;orthogonalLoop=1;jettySize=auto;html=1;fontSize=13;endArrow=classic;endFill=1;" parent="1" source="0qQAYpP3KVAneEx59sd1-33" target="4ovjFaTYSwnEynzdkDj6-39" edge="1">
          <mxGeometry relative="1" as="geometry" />
        </mxCell>
        <mxCell id="0qQAYpP3KVAneEx59sd1-33" value="+ 평진탕" style="text;html=1;strokeColor=none;fillColor=none;align=center;verticalAlign=middle;whiteSpace=wrap;rounded=0;" parent="1" vertex="1">
          <mxGeometry x="998" y="-192" width="60" height="30" as="geometry" />
        </mxCell>
        <mxCell id="0qQAYpP3KVAneEx59sd1-34" value="&lt;div&gt;평위산?, 월국환 : 이진탕? + 황련, 치자&lt;br&gt;&lt;/div&gt;&lt;div&gt;속쓰림, 충혈 = 실열&lt;br&gt;&lt;/div&gt;" style="text;html=1;strokeColor=none;fillColor=none;align=left;verticalAlign=middle;whiteSpace=wrap;rounded=0;" parent="1" vertex="1">
          <mxGeometry x="1207" y="-177" width="210" height="30" as="geometry" />
        </mxCell>
        <mxCell id="4ovjFaTYSwnEynzdkDj6-46" value="" style="edgeStyle=orthogonalEdgeStyle;rounded=0;orthogonalLoop=1;jettySize=auto;html=1;fontSize=13;endArrow=classic;endFill=1;" parent="1" source="0qQAYpP3KVAneEx59sd1-36" target="4ovjFaTYSwnEynzdkDj6-44" edge="1">
          <mxGeometry relative="1" as="geometry" />
        </mxCell>
        <mxCell id="0qQAYpP3KVAneEx59sd1-36" value="평진탕 + 대화중음(향소산) + 황련, 황금 " style="text;html=1;strokeColor=none;fillColor=none;align=center;verticalAlign=middle;whiteSpace=wrap;rounded=0;" parent="1" vertex="1">
          <mxGeometry x="1020" y="68" width="223" height="30" as="geometry" />
        </mxCell>
        <mxCell id="0qQAYpP3KVAneEx59sd1-39" value="&lt;div&gt;소화불량,&lt;/div&gt;&lt;div&gt;???,&lt;/div&gt;&lt;div&gt;속쓰림&lt;br&gt;&lt;/div&gt;" style="text;html=1;strokeColor=none;fillColor=none;align=center;verticalAlign=middle;whiteSpace=wrap;rounded=0;" parent="1" vertex="1">
          <mxGeometry x="1730" y="25" width="100" height="105" as="geometry" />
        </mxCell>
        <mxCell id="0qQAYpP3KVAneEx59sd1-40" value="去 소엽" style="text;html=1;strokeColor=none;fillColor=none;align=center;verticalAlign=middle;whiteSpace=wrap;rounded=0;" parent="1" vertex="1">
          <mxGeometry x="760" y="-86" width="60" height="30" as="geometry" />
        </mxCell>
        <mxCell id="4ovjFaTYSwnEynzdkDj6-29" value="" style="edgeStyle=orthogonalEdgeStyle;rounded=0;orthogonalLoop=1;jettySize=auto;html=1;fontSize=13;" parent="1" source="0qQAYpP3KVAneEx59sd1-42" target="4ovjFaTYSwnEynzdkDj6-28" edge="1">
          <mxGeometry relative="1" as="geometry" />
        </mxCell>
        <mxCell id="0qQAYpP3KVAneEx59sd1-42" value="&lt;p&gt;①진피↔귤피&lt;/p&gt;&lt;p&gt;②지실↔지각&lt;/p&gt;" style="rounded=0;whiteSpace=wrap;html=1;align=center;fillColor=#e1d5e7;strokeColor=#9673a6;" parent="1" vertex="1">
          <mxGeometry x="796" y="-352" width="100" height="60" as="geometry" />
        </mxCell>
        <mxCell id="0qQAYpP3KVAneEx59sd1-43" value="&lt;font style=&quot;font-size: 15px;&quot;&gt;&lt;b&gt;소화기&lt;/b&gt;&lt;/font&gt;" style="text;html=1;strokeColor=none;fillColor=none;align=center;verticalAlign=middle;whiteSpace=wrap;rounded=0;" parent="1" vertex="1">
          <mxGeometry x="570" y="210" width="60" height="30" as="geometry" />
        </mxCell>
        <mxCell id="0qQAYpP3KVAneEx59sd1-48" value="&lt;div&gt;칠제향부환 3-153&lt;/div&gt;&lt;div&gt;사제향부환 3-152&lt;br&gt;&lt;/div&gt;" style="rounded=0;whiteSpace=wrap;html=1;" parent="1" vertex="1">
          <mxGeometry x="760" y="480" width="120" height="60" as="geometry" />
        </mxCell>
        <mxCell id="0qQAYpP3KVAneEx59sd1-50" value="" style="endArrow=classic;html=1;rounded=0;entryX=0;entryY=0.5;entryDx=0;entryDy=0;" parent="1" target="0qQAYpP3KVAneEx59sd1-48" edge="1">
          <mxGeometry width="50" height="50" relative="1" as="geometry">
            <mxPoint x="640" y="510" as="sourcePoint" />
            <mxPoint x="690" y="460" as="targetPoint" />
          </mxGeometry>
        </mxCell>
        <mxCell id="0qQAYpP3KVAneEx59sd1-51" value="&lt;font style=&quot;font-size: 15px;&quot;&gt;&lt;b&gt;월경부조&lt;/b&gt;&lt;/font&gt;" style="text;html=1;strokeColor=none;fillColor=none;align=center;verticalAlign=middle;whiteSpace=wrap;rounded=0;" parent="1" vertex="1">
          <mxGeometry x="660" y="480" width="80" height="30" as="geometry" />
        </mxCell>
        <mxCell id="0qQAYpP3KVAneEx59sd1-52" value="" style="endArrow=classic;html=1;rounded=0;entryX=0;entryY=0.5;entryDx=0;entryDy=0;exitX=1;exitY=1;exitDx=0;exitDy=0;" parent="1" target="0qQAYpP3KVAneEx59sd1-26" edge="1">
          <mxGeometry width="50" height="50" relative="1" as="geometry">
            <mxPoint x="640" y="-162" as="sourcePoint" />
            <mxPoint x="846" y="-212" as="targetPoint" />
          </mxGeometry>
        </mxCell>
        <mxCell id="0qQAYpP3KVAneEx59sd1-53" value="" style="endArrow=classic;html=1;rounded=0;entryX=0;entryY=0.5;entryDx=0;entryDy=0;" parent="1" target="0qQAYpP3KVAneEx59sd1-27" edge="1">
          <mxGeometry width="50" height="50" relative="1" as="geometry">
            <mxPoint x="640" y="-56" as="sourcePoint" />
            <mxPoint x="846" y="-152" as="targetPoint" />
          </mxGeometry>
        </mxCell>
        <mxCell id="0qQAYpP3KVAneEx59sd1-54" value="" style="endArrow=classic;html=1;rounded=0;entryX=0;entryY=0.5;entryDx=0;entryDy=0;" parent="1" target="0qQAYpP3KVAneEx59sd1-29" edge="1">
          <mxGeometry width="50" height="50" relative="1" as="geometry">
            <mxPoint x="640" y="78" as="sourcePoint" />
            <mxPoint x="846" y="-72" as="targetPoint" />
            <Array as="points">
              <mxPoint x="816" y="78" />
            </Array>
          </mxGeometry>
        </mxCell>
        <mxCell id="0qQAYpP3KVAneEx59sd1-55" value="" style="endArrow=classic;html=1;rounded=0;entryX=0;entryY=0.5;entryDx=0;entryDy=0;" parent="1" edge="1">
          <mxGeometry width="50" height="50" relative="1" as="geometry">
            <mxPoint x="640" y="158" as="sourcePoint" />
            <mxPoint x="836" y="158" as="targetPoint" />
            <Array as="points" />
          </mxGeometry>
        </mxCell>
        <mxCell id="0qQAYpP3KVAneEx59sd1-56" value="당귀, 봉출, 아출, 목단피, 오약, 천궁, 삼릉, 현호색, 시호, 오매" style="text;html=1;strokeColor=none;fillColor=none;align=left;verticalAlign=middle;whiteSpace=wrap;rounded=0;" parent="1" vertex="1">
          <mxGeometry x="910" y="480" width="330" height="30" as="geometry" />
        </mxCell>
        <mxCell id="0qQAYpP3KVAneEx59sd1-57" value="&lt;font style=&quot;font-size: 15px;&quot;&gt;&lt;b&gt;감기&lt;br&gt;&lt;/b&gt;&lt;/font&gt;" style="text;html=1;strokeColor=none;fillColor=none;align=center;verticalAlign=middle;whiteSpace=wrap;rounded=0;" parent="1" vertex="1">
          <mxGeometry x="143" y="280" width="60" height="30" as="geometry" />
        </mxCell>
        <mxCell id="0qQAYpP3KVAneEx59sd1-58" value="생강, 치자, 천궁, 당귀" style="text;html=1;strokeColor=none;fillColor=none;align=left;verticalAlign=middle;whiteSpace=wrap;rounded=0;" parent="1" vertex="1">
          <mxGeometry x="910" y="510" width="210" height="30" as="geometry" />
        </mxCell>
        <mxCell id="0qQAYpP3KVAneEx59sd1-63" value="" style="edgeStyle=orthogonalEdgeStyle;rounded=0;orthogonalLoop=1;jettySize=auto;html=1;" parent="1" source="0qQAYpP3KVAneEx59sd1-59" target="0qQAYpP3KVAneEx59sd1-62" edge="1">
          <mxGeometry relative="1" as="geometry" />
        </mxCell>
        <mxCell id="4ovjFaTYSwnEynzdkDj6-58" style="edgeStyle=orthogonalEdgeStyle;rounded=0;orthogonalLoop=1;jettySize=auto;html=1;exitX=1;exitY=0.25;exitDx=0;exitDy=0;entryX=0;entryY=0.25;entryDx=0;entryDy=0;fontSize=13;endArrow=classic;endFill=1;" parent="1" source="0qQAYpP3KVAneEx59sd1-59" target="4ovjFaTYSwnEynzdkDj6-56" edge="1">
          <mxGeometry relative="1" as="geometry" />
        </mxCell>
        <mxCell id="4ovjFaTYSwnEynzdkDj6-87" style="edgeStyle=orthogonalEdgeStyle;rounded=0;orthogonalLoop=1;jettySize=auto;html=1;entryX=0.417;entryY=0.017;entryDx=0;entryDy=0;entryPerimeter=0;fontSize=11;endArrow=classic;endFill=1;" parent="1" target="4ovjFaTYSwnEynzdkDj6-81" edge="1">
          <mxGeometry relative="1" as="geometry">
            <mxPoint x="699.96" y="729" as="sourcePoint" />
            <mxPoint x="699.96" y="888.98" as="targetPoint" />
          </mxGeometry>
        </mxCell>
        <mxCell id="0qQAYpP3KVAneEx59sd1-59" value="교감단 2-089" style="rounded=0;whiteSpace=wrap;html=1;" parent="1" vertex="1">
          <mxGeometry x="640" y="670" width="120" height="60" as="geometry" />
        </mxCell>
        <mxCell id="4ovjFaTYSwnEynzdkDj6-79" value="" style="edgeStyle=orthogonalEdgeStyle;rounded=0;orthogonalLoop=1;jettySize=auto;html=1;fontSize=11;endArrow=classic;endFill=1;" parent="1" source="0qQAYpP3KVAneEx59sd1-62" target="4ovjFaTYSwnEynzdkDj6-78" edge="1">
          <mxGeometry relative="1" as="geometry" />
        </mxCell>
        <mxCell id="0qQAYpP3KVAneEx59sd1-62" value="&lt;div&gt;사궁산 2-059&lt;/div&gt;&lt;div&gt;(울혈)&lt;br&gt;&lt;/div&gt;" style="rounded=0;whiteSpace=wrap;html=1;" parent="1" vertex="1">
          <mxGeometry x="836" y="760" width="120" height="60" as="geometry" />
        </mxCell>
        <mxCell id="0qQAYpP3KVAneEx59sd1-64" value="향부자, 복신(심계, 중만)" style="text;html=1;strokeColor=none;fillColor=none;align=center;verticalAlign=middle;whiteSpace=wrap;rounded=0;" parent="1" vertex="1">
          <mxGeometry x="620" y="640" width="160" height="30" as="geometry" />
        </mxCell>
        <mxCell id="0qQAYpP3KVAneEx59sd1-65" value="습체 만성화" style="text;html=1;strokeColor=none;fillColor=none;align=center;verticalAlign=middle;whiteSpace=wrap;rounded=0;" parent="1" vertex="1">
          <mxGeometry x="831" y="820" width="125" height="30" as="geometry" />
        </mxCell>
        <mxCell id="0qQAYpP3KVAneEx59sd1-66" value="비위기체를 겸한 표증 감모" style="text;html=1;strokeColor=none;fillColor=none;align=center;verticalAlign=middle;whiteSpace=wrap;rounded=0;" parent="1" vertex="1">
          <mxGeometry x="139" y="540" width="100" height="30" as="geometry" />
        </mxCell>
        <mxCell id="0qQAYpP3KVAneEx59sd1-72" value="" style="edgeStyle=orthogonalEdgeStyle;rounded=0;orthogonalLoop=1;jettySize=auto;html=1;" parent="1" source="0qQAYpP3KVAneEx59sd1-67" target="0qQAYpP3KVAneEx59sd1-71" edge="1">
          <mxGeometry relative="1" as="geometry" />
        </mxCell>
        <mxCell id="0qQAYpP3KVAneEx59sd1-92" value="" style="edgeStyle=orthogonalEdgeStyle;rounded=0;orthogonalLoop=1;jettySize=auto;html=1;" parent="1" source="0qQAYpP3KVAneEx59sd1-67" target="0qQAYpP3KVAneEx59sd1-91" edge="1">
          <mxGeometry relative="1" as="geometry" />
        </mxCell>
        <mxCell id="0qQAYpP3KVAneEx59sd1-67" value="육울탕 3-038&lt;br&gt;:가슴답답, 열&lt;br&gt;허증경향성" style="rounded=0;whiteSpace=wrap;html=1;fillColor=#ffe6cc;strokeColor=#d79b00;" parent="1" vertex="1">
          <mxGeometry x="149" y="670" width="120" height="60" as="geometry" />
        </mxCell>
        <mxCell id="0qQAYpP3KVAneEx59sd1-68" value="&lt;span style=&quot;font-size: 15px&quot;&gt;&lt;b&gt;신경&lt;/b&gt;&lt;/span&gt;" style="text;html=1;strokeColor=none;fillColor=none;align=center;verticalAlign=middle;whiteSpace=wrap;rounded=0;fontColor=#0000ff;" parent="1" vertex="1">
          <mxGeometry x="420" y="670" width="100" height="30" as="geometry" />
        </mxCell>
        <mxCell id="0qQAYpP3KVAneEx59sd1-69" value="&lt;div style=&quot;font-size: 13px;&quot;&gt;월국환**&lt;/div&gt;&lt;div&gt;: 창출, 향부자, 천궁,신곡, 치자&lt;br&gt;&lt;/div&gt;" style="text;html=1;strokeColor=none;fillColor=none;align=left;verticalAlign=middle;whiteSpace=wrap;rounded=0;fontColor=#0000ff;" parent="1" vertex="1">
          <mxGeometry x="450" y="710" width="180" height="30" as="geometry" />
        </mxCell>
        <mxCell id="0qQAYpP3KVAneEx59sd1-74" value="" style="edgeStyle=orthogonalEdgeStyle;rounded=0;orthogonalLoop=1;jettySize=auto;html=1;" parent="1" source="0qQAYpP3KVAneEx59sd1-71" target="0qQAYpP3KVAneEx59sd1-73" edge="1">
          <mxGeometry relative="1" as="geometry" />
        </mxCell>
        <mxCell id="0qQAYpP3KVAneEx59sd1-71" value="신계향소산 2-033" style="rounded=0;whiteSpace=wrap;html=1;" parent="1" vertex="1">
          <mxGeometry x="149" y="810" width="120" height="60" as="geometry" />
        </mxCell>
        <mxCell id="0qQAYpP3KVAneEx59sd1-76" value="" style="edgeStyle=orthogonalEdgeStyle;rounded=0;orthogonalLoop=1;jettySize=auto;html=1;" parent="1" source="0qQAYpP3KVAneEx59sd1-73" target="0qQAYpP3KVAneEx59sd1-75" edge="1">
          <mxGeometry relative="1" as="geometry" />
        </mxCell>
        <mxCell id="0qQAYpP3KVAneEx59sd1-73" value="정기천향탕 2-089" style="rounded=0;whiteSpace=wrap;html=1;fillColor=#dae8fc;strokeColor=#6c8ebf;" parent="1" vertex="1">
          <mxGeometry x="149" y="950" width="120" height="60" as="geometry" />
        </mxCell>
        <mxCell id="0qQAYpP3KVAneEx59sd1-101" value="" style="edgeStyle=orthogonalEdgeStyle;rounded=0;orthogonalLoop=1;jettySize=auto;html=1;" parent="1" source="0qQAYpP3KVAneEx59sd1-75" target="0qQAYpP3KVAneEx59sd1-100" edge="1">
          <mxGeometry relative="1" as="geometry" />
        </mxCell>
        <mxCell id="0qQAYpP3KVAneEx59sd1-75" value="&lt;div&gt;행기향소산 2-132&lt;/div&gt;&lt;div&gt;: 급체→ 등근육에&amp;nbsp;&lt;/div&gt;&lt;div&gt;영향&lt;br&gt;&lt;/div&gt;" style="rounded=0;whiteSpace=wrap;html=1;fillColor=#ffe6cc;strokeColor=#d79b00;" parent="1" vertex="1">
          <mxGeometry x="149" y="1090" width="120" height="60" as="geometry" />
        </mxCell>
        <mxCell id="0qQAYpP3KVAneEx59sd1-77" value="&lt;div&gt;향부자 + 오약, 진피, 건강, 감초&lt;/div&gt;&lt;div align=&quot;left&quot;&gt;: 단중통, 흉통&lt;br&gt;&lt;/div&gt;" style="text;html=1;strokeColor=none;fillColor=none;align=center;verticalAlign=middle;whiteSpace=wrap;rounded=0;" parent="1" vertex="1">
          <mxGeometry x="209" y="920" width="200" height="30" as="geometry" />
        </mxCell>
        <mxCell id="0qQAYpP3KVAneEx59sd1-78" value="&lt;p style=&quot;font-size: 15px;&quot;&gt;&lt;font style=&quot;font-size: 15px;&quot;&gt;九氣作痛&lt;/font&gt;&lt;/p&gt;&lt;p style=&quot;font-size: 15px;&quot;&gt;&lt;font style=&quot;font-size: 15px;&quot;&gt;婦人氣痛&lt;/font&gt;&lt;/p&gt;" style="text;html=1;strokeColor=none;fillColor=none;align=center;verticalAlign=middle;whiteSpace=wrap;rounded=0;" parent="1" vertex="1">
          <mxGeometry x="237" y="965" width="140" height="30" as="geometry" />
        </mxCell>
        <mxCell id="0qQAYpP3KVAneEx59sd1-81" value="향소산 + 강황, 천궁, 오약, 지각, 마황**" style="text;html=1;strokeColor=none;fillColor=none;align=center;verticalAlign=middle;whiteSpace=wrap;rounded=0;" parent="1" vertex="1">
          <mxGeometry x="133" y="1160" width="230" height="30" as="geometry" />
        </mxCell>
        <mxCell id="0qQAYpP3KVAneEx59sd1-82" value="천궁, 지각, 지실" style="text;html=1;strokeColor=none;fillColor=none;align=center;verticalAlign=middle;whiteSpace=wrap;rounded=0;" parent="1" vertex="1">
          <mxGeometry x="310" y="965" width="140" height="30" as="geometry" />
        </mxCell>
        <mxCell id="0qQAYpP3KVAneEx59sd1-90" value="" style="edgeStyle=orthogonalEdgeStyle;rounded=0;orthogonalLoop=1;jettySize=auto;html=1;exitX=1;exitY=0.5;exitDx=0;exitDy=0;entryX=0;entryY=0.5;entryDx=0;entryDy=0;" parent="1" source="0qQAYpP3KVAneEx59sd1-81" target="0qQAYpP3KVAneEx59sd1-89" edge="1">
          <mxGeometry relative="1" as="geometry">
            <mxPoint x="366.5" y="1174.5" as="sourcePoint" />
            <mxPoint x="420" y="1174.5" as="targetPoint" />
          </mxGeometry>
        </mxCell>
        <mxCell id="0qQAYpP3KVAneEx59sd1-84" value="&lt;div&gt;신경과다, 원인불명 식체, 소화장애&lt;/div&gt;&lt;div&gt;: 흉통(감모) OR 배통(지절통) 심유혈적취?&lt;/div&gt;" style="text;html=1;strokeColor=none;fillColor=none;align=center;verticalAlign=middle;whiteSpace=wrap;rounded=0;" parent="1" vertex="1">
          <mxGeometry x="270" y="1092.5" width="230" height="55" as="geometry" />
        </mxCell>
        <mxCell id="0qQAYpP3KVAneEx59sd1-89" value="&lt;div&gt;去마황&lt;br&gt;&lt;/div&gt;&lt;div&gt;식체흉통 : IF 소화 약 THEN 加신곡, 빈랑&lt;br&gt;&lt;/div&gt;" style="text;html=1;strokeColor=none;fillColor=none;align=left;verticalAlign=middle;whiteSpace=wrap;rounded=0;" parent="1" vertex="1">
          <mxGeometry x="440" y="1147.5" width="230" height="55" as="geometry" />
        </mxCell>
        <mxCell id="0qQAYpP3KVAneEx59sd1-99" value="" style="edgeStyle=orthogonalEdgeStyle;rounded=0;orthogonalLoop=1;jettySize=auto;html=1;" parent="1" source="0qQAYpP3KVAneEx59sd1-91" edge="1">
          <mxGeometry relative="1" as="geometry">
            <mxPoint x="-200" y="810" as="targetPoint" />
          </mxGeometry>
        </mxCell>
        <mxCell id="4ovjFaTYSwnEynzdkDj6-16" value="" style="edgeStyle=orthogonalEdgeStyle;rounded=0;orthogonalLoop=1;jettySize=auto;html=1;" parent="1" source="0qQAYpP3KVAneEx59sd1-91" target="4ovjFaTYSwnEynzdkDj6-15" edge="1">
          <mxGeometry relative="1" as="geometry" />
        </mxCell>
        <mxCell id="OEPkOdysSpmX7XDhRAEk-8" value="" style="edgeStyle=orthogonalEdgeStyle;rounded=0;orthogonalLoop=1;jettySize=auto;html=1;" parent="1" source="0qQAYpP3KVAneEx59sd1-91" target="0qQAYpP3KVAneEx59sd1-95" edge="1">
          <mxGeometry relative="1" as="geometry" />
        </mxCell>
        <mxCell id="0qQAYpP3KVAneEx59sd1-91" value="&lt;div&gt;분심기음 3-083&lt;/div&gt;&lt;div&gt;:부종, 기울,&lt;/div&gt;&lt;div&gt;&amp;nbsp;대소변 불리&lt;br&gt;&lt;/div&gt;" style="rounded=0;whiteSpace=wrap;html=1;fillColor=#ffe6cc;strokeColor=#d79b00;" parent="1" vertex="1">
          <mxGeometry x="-100" y="670" width="120" height="60" as="geometry" />
        </mxCell>
        <mxCell id="0qQAYpP3KVAneEx59sd1-93" value="&lt;b&gt;&lt;font style=&quot;font-size: 15px;&quot;&gt;우울, 기울&lt;/font&gt;&lt;/b&gt;" style="text;html=1;strokeColor=none;fillColor=none;align=center;verticalAlign=middle;whiteSpace=wrap;rounded=0;" parent="1" vertex="1">
          <mxGeometry x="33" y="670" width="100" height="30" as="geometry" />
        </mxCell>
        <mxCell id="0qQAYpP3KVAneEx59sd1-94" value="기울습체, 대소변불리" style="text;html=1;strokeColor=none;fillColor=none;align=center;verticalAlign=middle;whiteSpace=wrap;rounded=0;" parent="1" vertex="1">
          <mxGeometry x="-210" y="750" width="150" height="30" as="geometry" />
        </mxCell>
        <mxCell id="4ovjFaTYSwnEynzdkDj6-12" value="" style="edgeStyle=orthogonalEdgeStyle;rounded=0;orthogonalLoop=1;jettySize=auto;html=1;" parent="1" source="0qQAYpP3KVAneEx59sd1-95" target="4ovjFaTYSwnEynzdkDj6-11" edge="1">
          <mxGeometry relative="1" as="geometry" />
        </mxCell>
        <mxCell id="0qQAYpP3KVAneEx59sd1-95" value="&lt;div&gt;분기음 2-059&lt;/div&gt;&lt;div&gt;: 종창, 천급&lt;br&gt;&lt;/div&gt;" style="text;html=1;strokeColor=#6c8ebf;fillColor=#dae8fc;align=center;verticalAlign=middle;whiteSpace=wrap;rounded=0;" parent="1" vertex="1">
          <mxGeometry x="-100" y="810" width="120" height="60" as="geometry" />
        </mxCell>
        <mxCell id="0qQAYpP3KVAneEx59sd1-98" value="가미온담탕 2-091" style="rounded=0;whiteSpace=wrap;html=1;fillColor=#dae8fc;strokeColor=#6c8ebf;" parent="1" vertex="1">
          <mxGeometry x="-268" y="810" width="120" height="60" as="geometry" />
        </mxCell>
        <mxCell id="0qQAYpP3KVAneEx59sd1-103" value="" style="edgeStyle=orthogonalEdgeStyle;rounded=0;orthogonalLoop=1;jettySize=auto;html=1;" parent="1" source="0qQAYpP3KVAneEx59sd1-100" target="0qQAYpP3KVAneEx59sd1-102" edge="1">
          <mxGeometry relative="1" as="geometry" />
        </mxCell>
        <mxCell id="0qQAYpP3KVAneEx59sd1-100" value="&lt;div&gt;흉통_실증?&lt;/div&gt;&lt;div&gt;: 변비, 흉통&amp;nbsp;&lt;/div&gt;&lt;div&gt;(대황, 감수, 망초)&lt;br&gt;&lt;/div&gt;&lt;div&gt;:부종, 소변란&lt;br&gt;&lt;/div&gt;" style="rounded=0;whiteSpace=wrap;html=1;fillColor=#fff2cc;strokeColor=#d6b656;align=left;" parent="1" vertex="1">
          <mxGeometry x="-51" y="1090" width="120" height="60" as="geometry" />
        </mxCell>
        <mxCell id="0qQAYpP3KVAneEx59sd1-105" value="" style="edgeStyle=orthogonalEdgeStyle;rounded=0;orthogonalLoop=1;jettySize=auto;html=1;" parent="1" source="0qQAYpP3KVAneEx59sd1-102" target="0qQAYpP3KVAneEx59sd1-104" edge="1">
          <mxGeometry relative="1" as="geometry" />
        </mxCell>
        <mxCell id="0qQAYpP3KVAneEx59sd1-102" value="&lt;div&gt;흉통&lt;/div&gt;&lt;div&gt;: 변비, 흉통&amp;nbsp;&lt;/div&gt;&lt;div&gt;(대황, 감수, 망초)&lt;br&gt;&lt;/div&gt;&lt;div&gt;:부종, 소변란&lt;br&gt;&lt;/div&gt;" style="rounded=0;whiteSpace=wrap;html=1;fillColor=#fff2cc;strokeColor=#d6b656;align=left;" parent="1" vertex="1">
          <mxGeometry x="-251" y="1090" width="120" height="60" as="geometry" />
        </mxCell>
        <mxCell id="0qQAYpP3KVAneEx59sd1-104" value="&lt;div&gt;: 대함흉탕**&lt;/div&gt;&lt;div&gt;: 소함흉탕**&lt;br&gt;&lt;/div&gt;" style="rounded=0;whiteSpace=wrap;html=1;fillColor=#dae8fc;strokeColor=#6c8ebf;align=center;" parent="1" vertex="1">
          <mxGeometry x="-451" y="1090" width="120" height="60" as="geometry" />
        </mxCell>
        <mxCell id="0qQAYpP3KVAneEx59sd1-120" value="" style="edgeStyle=orthogonalEdgeStyle;rounded=0;orthogonalLoop=1;jettySize=auto;html=1;" parent="1" source="0qQAYpP3KVAneEx59sd1-107" target="0qQAYpP3KVAneEx59sd1-114" edge="1">
          <mxGeometry relative="1" as="geometry" />
        </mxCell>
        <mxCell id="0qQAYpP3KVAneEx59sd1-121" style="edgeStyle=orthogonalEdgeStyle;rounded=0;orthogonalLoop=1;jettySize=auto;html=1;exitX=0;exitY=0.5;exitDx=0;exitDy=0;entryX=1;entryY=0.5;entryDx=0;entryDy=0;" parent="1" source="0qQAYpP3KVAneEx59sd1-107" target="0qQAYpP3KVAneEx59sd1-111" edge="1">
          <mxGeometry relative="1" as="geometry" />
        </mxCell>
        <mxCell id="0qQAYpP3KVAneEx59sd1-123" style="edgeStyle=orthogonalEdgeStyle;rounded=0;orthogonalLoop=1;jettySize=auto;html=1;exitX=0;exitY=0.75;exitDx=0;exitDy=0;entryX=1;entryY=0.5;entryDx=0;entryDy=0;" parent="1" source="0qQAYpP3KVAneEx59sd1-107" target="0qQAYpP3KVAneEx59sd1-118" edge="1">
          <mxGeometry relative="1" as="geometry">
            <mxPoint x="-745" y="630" as="targetPoint" />
          </mxGeometry>
        </mxCell>
        <mxCell id="4ovjFaTYSwnEynzdkDj6-10" value="" style="edgeStyle=orthogonalEdgeStyle;rounded=0;orthogonalLoop=1;jettySize=auto;html=1;" parent="1" source="0qQAYpP3KVAneEx59sd1-107" target="4ovjFaTYSwnEynzdkDj6-9" edge="1">
          <mxGeometry relative="1" as="geometry" />
        </mxCell>
        <mxCell id="0qQAYpP3KVAneEx59sd1-107" value="&lt;div&gt;개결서경탕 3-131&lt;/div&gt;&lt;div align=&quot;left&quot;&gt;: 신경성 견통, 담음,&amp;nbsp;&lt;/div&gt;&lt;div align=&quot;left&quot;&gt;신체통&lt;br&gt;&lt;/div&gt;" style="rounded=0;whiteSpace=wrap;html=1;strokeWidth=2;fillColor=#dae8fc;strokeColor=#6c8ebf;" parent="1" vertex="1">
          <mxGeometry x="-611" y="480" width="120" height="60" as="geometry" />
        </mxCell>
        <mxCell id="0qQAYpP3KVAneEx59sd1-109" value="&lt;font style=&quot;font-size: 15px;&quot;&gt;신경성 담음, 신체통&lt;/font&gt;" style="text;html=1;strokeColor=none;fillColor=none;align=center;verticalAlign=middle;whiteSpace=wrap;rounded=0;fontColor=#0000FF;fontStyle=1" parent="1" vertex="1">
          <mxGeometry x="-31" y="470" width="142" height="30" as="geometry" />
        </mxCell>
        <mxCell id="0qQAYpP3KVAneEx59sd1-110" value="&lt;div&gt;향소산 + 이진탕 + 당귀, 천궁,&amp;nbsp;&lt;/div&gt;&lt;div&gt;남성, 오약, 계지&lt;/div&gt;" style="text;html=1;strokeColor=none;fillColor=none;align=left;verticalAlign=middle;whiteSpace=wrap;rounded=0;" parent="1" vertex="1">
          <mxGeometry x="-480" y="520" width="95" height="30" as="geometry" />
        </mxCell>
        <mxCell id="0qQAYpP3KVAneEx59sd1-111" value="십육미유기음 2-140" style="rounded=0;whiteSpace=wrap;html=1;fillColor=#fff2cc;strokeColor=#d6b656;" parent="1" vertex="1">
          <mxGeometry x="-995" y="480" width="120" height="60" as="geometry" />
        </mxCell>
        <mxCell id="0qQAYpP3KVAneEx59sd1-113" value="유선염, 림프선염, 유옹&lt;br&gt;예민, 부작용이 많은 사례에 사용&amp;nbsp;" style="text;html=1;strokeColor=none;fillColor=none;align=center;verticalAlign=middle;whiteSpace=wrap;rounded=0;" parent="1" vertex="1">
          <mxGeometry x="-1005" y="550" width="185" height="30" as="geometry" />
        </mxCell>
        <mxCell id="4ovjFaTYSwnEynzdkDj6-2" value="" style="edgeStyle=orthogonalEdgeStyle;rounded=0;orthogonalLoop=1;jettySize=auto;html=1;" parent="1" source="0qQAYpP3KVAneEx59sd1-114" target="4ovjFaTYSwnEynzdkDj6-1" edge="1">
          <mxGeometry relative="1" as="geometry" />
        </mxCell>
        <mxCell id="0qQAYpP3KVAneEx59sd1-114" value="반하금출탕 3-132&lt;br&gt;@머리 위쪽?" style="rounded=0;whiteSpace=wrap;html=1;fillColor=#fff2cc;strokeColor=#d6b656;" parent="1" vertex="1">
          <mxGeometry x="-611" y="350" width="120" height="60" as="geometry" />
        </mxCell>
        <mxCell id="0qQAYpP3KVAneEx59sd1-116" value="&lt;div&gt;이진탕 + 향소산 + 남성, 황금, 위령선&lt;/div&gt;&lt;div&gt;견통과 욱씬 거리는 통증(염증성)&lt;br&gt;&lt;/div&gt;" style="text;html=1;strokeColor=none;fillColor=none;align=center;verticalAlign=middle;whiteSpace=wrap;rounded=0;" parent="1" vertex="1">
          <mxGeometry x="-765" y="410" width="210" height="40" as="geometry" />
        </mxCell>
        <mxCell id="0qQAYpP3KVAneEx59sd1-118" value="&lt;div&gt;빈소산 3-135&lt;/div&gt;&lt;div&gt;풍습, 각기, 종통구련?&lt;/div&gt;&lt;div&gt;:하지부종, 슬통&lt;br&gt;&lt;/div&gt;&lt;div&gt;*치험례&lt;/div&gt;" style="rounded=0;whiteSpace=wrap;html=1;fillColor=#fff2cc;strokeColor=#d6b656;" parent="1" vertex="1">
          <mxGeometry x="-995" y="600" width="120" height="60" as="geometry" />
        </mxCell>
        <mxCell id="0qQAYpP3KVAneEx59sd1-122" value="&lt;div&gt;부인칠정육울?&lt;/div&gt;&lt;div&gt;: 기울성 견통&lt;br&gt;&lt;/div&gt;" style="text;html=1;strokeColor=none;fillColor=none;align=center;verticalAlign=middle;whiteSpace=wrap;rounded=0;" parent="1" vertex="1">
          <mxGeometry x="-785" y="480" width="90" height="30" as="geometry" />
        </mxCell>
        <mxCell id="4ovjFaTYSwnEynzdkDj6-119" value="" style="edgeStyle=orthogonalEdgeStyle;rounded=0;orthogonalLoop=1;jettySize=auto;html=1;fontSize=13;endArrow=classic;endFill=1;" parent="1" source="0qQAYpP3KVAneEx59sd1-124" target="4ovjFaTYSwnEynzdkDj6-118" edge="1">
          <mxGeometry relative="1" as="geometry" />
        </mxCell>
        <mxCell id="4ovjFaTYSwnEynzdkDj6-123" value="" style="edgeStyle=orthogonalEdgeStyle;rounded=0;orthogonalLoop=1;jettySize=auto;html=1;fontSize=13;endArrow=classic;endFill=1;entryX=1;entryY=0.5;entryDx=0;entryDy=0;" parent="1" source="0qQAYpP3KVAneEx59sd1-124" target="4ovjFaTYSwnEynzdkDj6-122" edge="1">
          <mxGeometry relative="1" as="geometry" />
        </mxCell>
        <mxCell id="0qQAYpP3KVAneEx59sd1-124" value="&lt;b&gt;&lt;font style=&quot;font-size: 15px&quot;&gt;심화: 치자, 황련&lt;/font&gt;&lt;/b&gt;" style="text;html=1;strokeColor=none;fillColor=none;align=center;verticalAlign=middle;whiteSpace=wrap;rounded=0;fontColor=#0000ff;" parent="1" vertex="1">
          <mxGeometry x="149" y="640" width="121" height="30" as="geometry" />
        </mxCell>
        <mxCell id="0qQAYpP3KVAneEx59sd1-125" value="&lt;b&gt;&lt;font style=&quot;font-size: 15px;&quot;&gt;기울&lt;/font&gt;&lt;/b&gt;" style="text;html=1;strokeColor=none;fillColor=none;align=center;verticalAlign=middle;whiteSpace=wrap;rounded=0;" parent="1" vertex="1">
          <mxGeometry x="209" y="750" width="60" height="30" as="geometry" />
        </mxCell>
        <mxCell id="XbNrcUxeXuKMsaVlD1t0-1" value="여름" style="text;html=1;strokeColor=none;fillColor=none;align=center;verticalAlign=middle;whiteSpace=wrap;rounded=0;fontSize=15;fontStyle=1" parent="1" vertex="1">
          <mxGeometry x="203" y="280" width="60" height="30" as="geometry" />
        </mxCell>
        <mxCell id="4ovjFaTYSwnEynzdkDj6-4" value="" style="edgeStyle=orthogonalEdgeStyle;rounded=0;orthogonalLoop=1;jettySize=auto;html=1;" parent="1" source="4ovjFaTYSwnEynzdkDj6-1" target="4ovjFaTYSwnEynzdkDj6-3" edge="1">
          <mxGeometry relative="1" as="geometry" />
        </mxCell>
        <mxCell id="4ovjFaTYSwnEynzdkDj6-1" value="팔보회춘탕" style="rounded=0;whiteSpace=wrap;html=1;fillColor=#fff2cc;strokeColor=#d6b656;" parent="1" vertex="1">
          <mxGeometry x="-611" y="210" width="120" height="60" as="geometry" />
        </mxCell>
        <mxCell id="4ovjFaTYSwnEynzdkDj6-6" value="" style="edgeStyle=orthogonalEdgeStyle;rounded=0;orthogonalLoop=1;jettySize=auto;html=1;" parent="1" source="4ovjFaTYSwnEynzdkDj6-3" target="4ovjFaTYSwnEynzdkDj6-5" edge="1">
          <mxGeometry relative="1" as="geometry" />
        </mxCell>
        <mxCell id="4ovjFaTYSwnEynzdkDj6-3" value="삼합탕" style="rounded=0;whiteSpace=wrap;html=1;fillColor=#fff2cc;strokeColor=#d6b656;" parent="1" vertex="1">
          <mxGeometry x="-611" y="70" width="120" height="60" as="geometry" />
        </mxCell>
        <mxCell id="4ovjFaTYSwnEynzdkDj6-5" value="소풍탕" style="rounded=0;whiteSpace=wrap;html=1;fillColor=#fff2cc;strokeColor=#d6b656;" parent="1" vertex="1">
          <mxGeometry x="-611" y="-70" width="120" height="60" as="geometry" />
        </mxCell>
        <mxCell id="4ovjFaTYSwnEynzdkDj6-9" value="&lt;div&gt;청열사습탕&lt;/div&gt;&lt;div&gt;*조문&lt;/div&gt;" style="rounded=0;whiteSpace=wrap;html=1;strokeWidth=2;fillColor=#dae8fc;strokeColor=#6c8ebf;" parent="1" vertex="1">
          <mxGeometry x="-611" y="620" width="120" height="60" as="geometry" />
        </mxCell>
        <mxCell id="4ovjFaTYSwnEynzdkDj6-11" value="&lt;div&gt;삼화탕&lt;/div&gt;" style="text;html=1;strokeColor=#6c8ebf;fillColor=#dae8fc;align=center;verticalAlign=middle;whiteSpace=wrap;rounded=0;" parent="1" vertex="1">
          <mxGeometry x="-100" y="950" width="120" height="60" as="geometry" />
        </mxCell>
        <mxCell id="4ovjFaTYSwnEynzdkDj6-15" value="황련청심음2-080" style="rounded=0;whiteSpace=wrap;html=1;fillColor=#ffe6cc;strokeColor=#d79b00;" parent="1" vertex="1">
          <mxGeometry x="-431" y="810" width="120" height="60" as="geometry" />
        </mxCell>
        <mxCell id="4ovjFaTYSwnEynzdkDj6-17" value="&lt;p&gt;&lt;/p&gt;&lt;div style=&quot;text-align: left&quot;&gt;&lt;span&gt;①&lt;/span&gt;&lt;span&gt;향사육군자탕 1-020&lt;/span&gt;&lt;/div&gt;&lt;div style=&quot;text-align: left&quot;&gt;&lt;span&gt;*조문 @비허&lt;/span&gt;&lt;/div&gt;" style="rounded=0;whiteSpace=wrap;html=1;" parent="1" vertex="1">
          <mxGeometry x="836" y="-272" width="140" height="60" as="geometry" />
        </mxCell>
        <mxCell id="4ovjFaTYSwnEynzdkDj6-19" value="" style="shape=flexArrow;endArrow=classic;startArrow=classic;html=1;rounded=0;" parent="1" edge="1">
          <mxGeometry width="100" height="100" relative="1" as="geometry">
            <mxPoint x="680" y="208" as="sourcePoint" />
            <mxPoint x="680" y="-262" as="targetPoint" />
          </mxGeometry>
        </mxCell>
        <mxCell id="4ovjFaTYSwnEynzdkDj6-24" value="" style="edgeStyle=orthogonalEdgeStyle;rounded=0;orthogonalLoop=1;jettySize=auto;html=1;" parent="1" source="4ovjFaTYSwnEynzdkDj6-20" target="4ovjFaTYSwnEynzdkDj6-23" edge="1">
          <mxGeometry relative="1" as="geometry" />
        </mxCell>
        <mxCell id="4ovjFaTYSwnEynzdkDj6-20" value="전씨이공산1-019" style="whiteSpace=wrap;html=1;" parent="1" vertex="1">
          <mxGeometry x="1468" y="-272" width="120" height="60" as="geometry" />
        </mxCell>
        <mxCell id="4ovjFaTYSwnEynzdkDj6-22" value="비허심" style="text;html=1;strokeColor=none;fillColor=none;align=center;verticalAlign=middle;whiteSpace=wrap;rounded=0;" parent="1" vertex="1">
          <mxGeometry x="1356" y="-272" width="60" height="30" as="geometry" />
        </mxCell>
        <mxCell id="4ovjFaTYSwnEynzdkDj6-35" style="edgeStyle=orthogonalEdgeStyle;rounded=0;orthogonalLoop=1;jettySize=auto;html=1;exitX=1;exitY=0.5;exitDx=0;exitDy=0;entryX=0.5;entryY=0;entryDx=0;entryDy=0;fontSize=13;endArrow=oval;endFill=0;" parent="1" source="4ovjFaTYSwnEynzdkDj6-23" target="4ovjFaTYSwnEynzdkDj6-34" edge="1">
          <mxGeometry relative="1" as="geometry" />
        </mxCell>
        <mxCell id="4ovjFaTYSwnEynzdkDj6-23" value="전씨백출산" style="whiteSpace=wrap;html=1;" parent="1" vertex="1">
          <mxGeometry x="1668" y="-272" width="120" height="60" as="geometry" />
        </mxCell>
        <mxCell id="4ovjFaTYSwnEynzdkDj6-25" value="거 향부자. 너무&amp;nbsp; 허약하므로" style="text;html=1;strokeColor=none;fillColor=none;align=center;verticalAlign=middle;whiteSpace=wrap;rounded=0;" parent="1" vertex="1">
          <mxGeometry x="1466" y="-212" width="170" height="30" as="geometry" />
        </mxCell>
        <mxCell id="4ovjFaTYSwnEynzdkDj6-26" value="허증 경향" style="text;html=1;strokeColor=none;fillColor=none;align=center;verticalAlign=middle;whiteSpace=wrap;rounded=0;fontStyle=1;fontSize=13;" parent="1" vertex="1">
          <mxGeometry x="650" y="-302" width="60" height="30" as="geometry" />
        </mxCell>
        <mxCell id="4ovjFaTYSwnEynzdkDj6-27" value="실증 경향&lt;br&gt;:창만, 부종" style="text;html=1;strokeColor=none;fillColor=none;align=center;verticalAlign=middle;whiteSpace=wrap;rounded=0;fontStyle=1;fontSize=13;" parent="1" vertex="1">
          <mxGeometry x="650" y="218" width="80" height="30" as="geometry" />
        </mxCell>
        <mxCell id="4ovjFaTYSwnEynzdkDj6-28" value="진피, 굴피, 청피, 지실, 지각의 쓰임새 모아서 보세요." style="whiteSpace=wrap;html=1;fillColor=#e1d5e7;strokeColor=#9673a6;rounded=0;" parent="1" vertex="1">
          <mxGeometry x="966" y="-353" width="164" height="63" as="geometry" />
        </mxCell>
        <mxCell id="4ovjFaTYSwnEynzdkDj6-33" value="" style="edgeStyle=orthogonalEdgeStyle;rounded=0;orthogonalLoop=1;jettySize=auto;html=1;fontSize=13;" parent="1" source="4ovjFaTYSwnEynzdkDj6-30" target="4ovjFaTYSwnEynzdkDj6-32" edge="1">
          <mxGeometry relative="1" as="geometry" />
        </mxCell>
        <mxCell id="4ovjFaTYSwnEynzdkDj6-30" value="향부자, 지실" style="rounded=0;whiteSpace=wrap;html=1;" parent="1" vertex="1">
          <mxGeometry x="1036" y="-86" width="120" height="60" as="geometry" />
        </mxCell>
        <mxCell id="4ovjFaTYSwnEynzdkDj6-36" style="edgeStyle=orthogonalEdgeStyle;rounded=0;orthogonalLoop=1;jettySize=auto;html=1;entryX=0.5;entryY=1;entryDx=0;entryDy=0;fontSize=13;endArrow=oval;endFill=0;" parent="1" source="4ovjFaTYSwnEynzdkDj6-32" target="4ovjFaTYSwnEynzdkDj6-34" edge="1">
          <mxGeometry relative="1" as="geometry" />
        </mxCell>
        <mxCell id="4ovjFaTYSwnEynzdkDj6-32" value="대화중음 3-025&lt;br&gt;:소화, 소식제" style="rounded=0;whiteSpace=wrap;html=1;" parent="1" vertex="1">
          <mxGeometry x="1236" y="-86" width="120" height="60" as="geometry" />
        </mxCell>
        <mxCell id="4ovjFaTYSwnEynzdkDj6-34" value="향사양위탕, 인삼양위탕" style="rounded=0;whiteSpace=wrap;html=1;fontSize=13;" parent="1" vertex="1">
          <mxGeometry x="1850" y="-177" width="170" height="60" as="geometry" />
        </mxCell>
        <mxCell id="4ovjFaTYSwnEynzdkDj6-38" value="천궁 : 항스트레스" style="text;html=1;strokeColor=none;fillColor=none;align=center;verticalAlign=middle;whiteSpace=wrap;rounded=0;fontSize=13;" parent="1" vertex="1">
          <mxGeometry x="835" y="-132" width="135" height="30" as="geometry" />
        </mxCell>
        <mxCell id="4ovjFaTYSwnEynzdkDj6-39" value="가미사칠탕" style="text;html=1;strokeColor=none;fillColor=none;align=center;verticalAlign=middle;whiteSpace=wrap;rounded=0;fontSize=13;" parent="1" vertex="1">
          <mxGeometry x="982" y="-119" width="92" height="30" as="geometry" />
        </mxCell>
        <mxCell id="4ovjFaTYSwnEynzdkDj6-44" value="내소산 3-026" style="rounded=0;whiteSpace=wrap;html=1;" parent="1" vertex="1">
          <mxGeometry x="1340" y="53" width="120" height="60" as="geometry" />
        </mxCell>
        <mxCell id="4ovjFaTYSwnEynzdkDj6-45" value="&lt;div&gt;이진탕 + ??? + 산사, 신곡, 시호 + 건강 **&lt;/div&gt;&lt;div&gt;???, 적취징가&lt;br&gt;&lt;/div&gt;" style="text;html=1;strokeColor=none;fillColor=none;align=left;verticalAlign=middle;whiteSpace=wrap;rounded=0;" parent="1" vertex="1">
          <mxGeometry x="1487" y="65" width="260" height="30" as="geometry" />
        </mxCell>
        <mxCell id="OEPkOdysSpmX7XDhRAEk-4" value="" style="edgeStyle=orthogonalEdgeStyle;rounded=0;orthogonalLoop=1;jettySize=auto;html=1;" parent="1" source="4ovjFaTYSwnEynzdkDj6-48" target="OEPkOdysSpmX7XDhRAEk-3" edge="1">
          <mxGeometry relative="1" as="geometry" />
        </mxCell>
        <mxCell id="4ovjFaTYSwnEynzdkDj6-48" value="&lt;p class=&quot;0&quot;&gt;&lt;span style=&quot;letter-spacing: 0pt&quot;&gt;⑤소적정원산 3-040&lt;/span&gt;&lt;/p&gt;" style="rounded=0;whiteSpace=wrap;html=1;fontSize=13;strokeColor=default;" parent="1" vertex="1">
          <mxGeometry x="835" y="130" width="120" height="60" as="geometry" />
        </mxCell>
        <mxCell id="4ovjFaTYSwnEynzdkDj6-51" value="" style="edgeStyle=orthogonalEdgeStyle;rounded=0;orthogonalLoop=1;jettySize=auto;html=1;fontSize=13;endArrow=classic;endFill=1;" parent="1" source="4ovjFaTYSwnEynzdkDj6-49" target="4ovjFaTYSwnEynzdkDj6-50" edge="1">
          <mxGeometry relative="1" as="geometry" />
        </mxCell>
        <mxCell id="4ovjFaTYSwnEynzdkDj6-49" value="* 치험례 꼭 보세요. 윤제용 선생님&lt;br&gt;현호색, 지실, 향부자+ 소식제&lt;br&gt;담독, 간, 담 가스참, 신경과다" style="text;html=1;strokeColor=none;fillColor=none;align=center;verticalAlign=middle;whiteSpace=wrap;rounded=0;fontSize=13;" parent="1" vertex="1">
          <mxGeometry x="801" y="190" width="199" height="50" as="geometry" />
        </mxCell>
        <mxCell id="4ovjFaTYSwnEynzdkDj6-53" value="" style="edgeStyle=orthogonalEdgeStyle;rounded=0;orthogonalLoop=1;jettySize=auto;html=1;fontSize=13;endArrow=classic;endFill=1;" parent="1" source="4ovjFaTYSwnEynzdkDj6-50" target="4ovjFaTYSwnEynzdkDj6-52" edge="1">
          <mxGeometry relative="1" as="geometry" />
        </mxCell>
        <mxCell id="4ovjFaTYSwnEynzdkDj6-50" value="실증:&lt;br&gt;대시호탕" style="whiteSpace=wrap;html=1;fontSize=13;strokeColor=default;" parent="1" vertex="1">
          <mxGeometry x="840.5" y="299" width="120" height="60" as="geometry" />
        </mxCell>
        <mxCell id="4ovjFaTYSwnEynzdkDj6-55" value="" style="edgeStyle=orthogonalEdgeStyle;rounded=0;orthogonalLoop=1;jettySize=auto;html=1;fontSize=13;endArrow=classic;endFill=1;" parent="1" source="4ovjFaTYSwnEynzdkDj6-52" target="4ovjFaTYSwnEynzdkDj6-54" edge="1">
          <mxGeometry relative="1" as="geometry" />
        </mxCell>
        <mxCell id="4ovjFaTYSwnEynzdkDj6-52" value="사역산" style="whiteSpace=wrap;html=1;fontSize=13;strokeColor=default;" parent="1" vertex="1">
          <mxGeometry x="1058.5" y="299" width="120" height="60" as="geometry" />
        </mxCell>
        <mxCell id="4ovjFaTYSwnEynzdkDj6-54" value="반총산&lt;br&gt;창출, 감초, 삼릉, 봉출@방산통: 요관결석" style="whiteSpace=wrap;html=1;fontSize=13;strokeColor=default;" parent="1" vertex="1">
          <mxGeometry x="1258.5" y="299" width="197.5" height="60" as="geometry" />
        </mxCell>
        <mxCell id="4ovjFaTYSwnEynzdkDj6-60" value="" style="edgeStyle=orthogonalEdgeStyle;rounded=0;orthogonalLoop=1;jettySize=auto;html=1;fontSize=13;endArrow=classic;endFill=1;exitX=1;exitY=0.5;exitDx=0;exitDy=0;" parent="1" source="4ovjFaTYSwnEynzdkDj6-56" target="4ovjFaTYSwnEynzdkDj6-59" edge="1">
          <mxGeometry relative="1" as="geometry">
            <mxPoint x="1361" y="700" as="sourcePoint" />
          </mxGeometry>
        </mxCell>
        <mxCell id="4ovjFaTYSwnEynzdkDj6-56" value="&lt;div&gt;신선부익단&lt;/div&gt;" style="rounded=0;whiteSpace=wrap;html=1;" parent="1" vertex="1">
          <mxGeometry x="1050" y="670" width="120" height="60" as="geometry" />
        </mxCell>
        <mxCell id="4ovjFaTYSwnEynzdkDj6-59" value="&lt;p class=&quot;0&quot;&gt;&lt;span style=&quot;letter-spacing: 0pt&quot;&gt;① 부익지황환&lt;/span&gt;&lt;/p&gt;&lt;p class=&quot;0&quot;&gt;&lt;span style=&quot;letter-spacing: 0pt&quot;&gt;:육미 + for 소양인&lt;/span&gt;&lt;/p&gt;" style="rounded=0;whiteSpace=wrap;html=1;" parent="1" vertex="1">
          <mxGeometry x="1480" y="670" width="120" height="60" as="geometry" />
        </mxCell>
        <mxCell id="4ovjFaTYSwnEynzdkDj6-61" value="*치험례" style="text;html=1;strokeColor=none;fillColor=none;align=center;verticalAlign=middle;whiteSpace=wrap;rounded=0;fontSize=13;" parent="1" vertex="1">
          <mxGeometry x="1489" y="730" width="60" height="30" as="geometry" />
        </mxCell>
        <mxCell id="4ovjFaTYSwnEynzdkDj6-63" value="&lt;p class=&quot;0&quot; style=&quot;line-height: 1; font-size: 11px;&quot;&gt;&lt;span style=&quot;letter-spacing: 0pt; font-size: 11px;&quot;&gt;②조경종옥탕&lt;/span&gt;&lt;/p&gt;&lt;p class=&quot;0&quot; style=&quot;font-size: 11px;&quot;&gt;&lt;span style=&quot;letter-spacing: 0pt; font-size: 11px;&quot;&gt;: 사물탕 + 향부자,애엽&lt;/span&gt;&lt;/p&gt;&lt;p class=&quot;0&quot; style=&quot;font-size: 11px;&quot;&gt;&lt;span style=&quot;letter-spacing: 0pt; font-size: 11px;&quot;&gt;숙지황_군&lt;/span&gt;&lt;/p&gt;" style="rounded=0;whiteSpace=wrap;html=1;spacing=0;verticalAlign=middle;fontSize=11;" parent="1" vertex="1">
          <mxGeometry x="1480" y="760" width="170" height="70" as="geometry" />
        </mxCell>
        <mxCell id="4ovjFaTYSwnEynzdkDj6-66" value="&lt;p class=&quot;0&quot;&gt;&lt;span style=&quot;letter-spacing: 0pt&quot;&gt;③궁귀조혈음 **빈용&lt;/span&gt;&lt;/p&gt;&lt;p class=&quot;0&quot;&gt;&lt;span style=&quot;letter-spacing: 0pt&quot;&gt;:사물탕+ 향부자, 오약, 목단피&lt;/span&gt;&lt;/p&gt;" style="rounded=0;whiteSpace=wrap;html=1;" parent="1" vertex="1">
          <mxGeometry x="1480" y="860" width="170" height="60" as="geometry" />
        </mxCell>
        <mxCell id="4ovjFaTYSwnEynzdkDj6-69" style="edgeStyle=orthogonalEdgeStyle;rounded=0;orthogonalLoop=1;jettySize=auto;html=1;exitX=0.5;exitY=1;exitDx=0;exitDy=0;fontSize=11;endArrow=classic;endFill=1;" parent="1" source="4ovjFaTYSwnEynzdkDj6-63" target="4ovjFaTYSwnEynzdkDj6-63" edge="1">
          <mxGeometry relative="1" as="geometry" />
        </mxCell>
        <mxCell id="4ovjFaTYSwnEynzdkDj6-77" value="" style="edgeStyle=orthogonalEdgeStyle;rounded=0;orthogonalLoop=1;jettySize=auto;html=1;fontSize=11;endArrow=classic;endFill=1;" parent="1" source="4ovjFaTYSwnEynzdkDj6-72" target="4ovjFaTYSwnEynzdkDj6-76" edge="1">
          <mxGeometry relative="1" as="geometry" />
        </mxCell>
        <mxCell id="4ovjFaTYSwnEynzdkDj6-72" value="&lt;p class=&quot;0&quot;&gt;&lt;span style=&quot;letter-spacing: 0pt&quot;&gt;④귀출파징탕&lt;/span&gt;&lt;/p&gt;&lt;p class=&quot;0&quot;&gt;&lt;span style=&quot;letter-spacing: 0pt&quot;&gt;:사물탕 + 삼릉봉출, 오약, 청피 @어혈&lt;/span&gt;&lt;/p&gt;" style="rounded=0;whiteSpace=wrap;html=1;" parent="1" vertex="1">
          <mxGeometry x="1478" y="960" width="120" height="60" as="geometry" />
        </mxCell>
        <mxCell id="4ovjFaTYSwnEynzdkDj6-76" value="&lt;p class=&quot;0&quot;&gt;&lt;span style=&quot;letter-spacing: 0pt&quot;&gt;통경탕&lt;/span&gt;&lt;/p&gt;" style="rounded=0;whiteSpace=wrap;html=1;" parent="1" vertex="1">
          <mxGeometry x="1678" y="960" width="120" height="60" as="geometry" />
        </mxCell>
        <mxCell id="4ovjFaTYSwnEynzdkDj6-78" value="&lt;div&gt;하고초산&lt;/div&gt;&lt;div&gt;:안구충혈(안질환)&lt;/div&gt;&lt;div&gt;허/실 구분해야&lt;/div&gt;" style="rounded=0;whiteSpace=wrap;html=1;" parent="1" vertex="1">
          <mxGeometry x="1036" y="760" width="120" height="60" as="geometry" />
        </mxCell>
        <mxCell id="4ovjFaTYSwnEynzdkDj6-84" value="" style="edgeStyle=orthogonalEdgeStyle;rounded=0;orthogonalLoop=1;jettySize=auto;html=1;fontSize=11;endArrow=classic;endFill=1;" parent="1" edge="1">
          <mxGeometry relative="1" as="geometry">
            <mxPoint x="771" y="915" as="sourcePoint" />
            <mxPoint x="851" y="915" as="targetPoint" />
          </mxGeometry>
        </mxCell>
        <mxCell id="4ovjFaTYSwnEynzdkDj6-100" value="" style="edgeStyle=orthogonalEdgeStyle;rounded=0;orthogonalLoop=1;jettySize=auto;html=1;fontSize=11;endArrow=classic;endFill=1;" parent="1" source="4ovjFaTYSwnEynzdkDj6-81" target="4ovjFaTYSwnEynzdkDj6-99" edge="1">
          <mxGeometry relative="1" as="geometry" />
        </mxCell>
        <mxCell id="4ovjFaTYSwnEynzdkDj6-111" value="" style="edgeStyle=orthogonalEdgeStyle;rounded=0;orthogonalLoop=1;jettySize=auto;html=1;fontSize=11;endArrow=classic;endFill=1;" parent="1" source="4ovjFaTYSwnEynzdkDj6-81" target="4ovjFaTYSwnEynzdkDj6-110" edge="1">
          <mxGeometry relative="1" as="geometry" />
        </mxCell>
        <mxCell id="4ovjFaTYSwnEynzdkDj6-81" value="길경지각탕&lt;br&gt;:가슴답답, 스트레스" style="whiteSpace=wrap;html=1;fontSize=11;strokeColor=default;" parent="1" vertex="1">
          <mxGeometry x="650" y="885" width="120" height="60" as="geometry" />
        </mxCell>
        <mxCell id="4ovjFaTYSwnEynzdkDj6-86" value="" style="edgeStyle=orthogonalEdgeStyle;rounded=0;orthogonalLoop=1;jettySize=auto;html=1;fontSize=11;endArrow=classic;endFill=1;" parent="1" edge="1">
          <mxGeometry relative="1" as="geometry">
            <mxPoint x="971" y="915" as="sourcePoint" />
            <mxPoint x="1051" y="915" as="targetPoint" />
          </mxGeometry>
        </mxCell>
        <mxCell id="4ovjFaTYSwnEynzdkDj6-83" value="삼소음" style="whiteSpace=wrap;html=1;fontSize=11;strokeColor=default;" parent="1" vertex="1">
          <mxGeometry x="850" y="885" width="120" height="60" as="geometry" />
        </mxCell>
        <mxCell id="4ovjFaTYSwnEynzdkDj6-89" value="" style="edgeStyle=orthogonalEdgeStyle;rounded=0;orthogonalLoop=1;jettySize=auto;html=1;fontSize=11;endArrow=classic;endFill=1;" parent="1" source="4ovjFaTYSwnEynzdkDj6-85" target="4ovjFaTYSwnEynzdkDj6-88" edge="1">
          <mxGeometry relative="1" as="geometry" />
        </mxCell>
        <mxCell id="4ovjFaTYSwnEynzdkDj6-85" value="복령보심탕" style="whiteSpace=wrap;html=1;fontSize=11;strokeColor=default;" parent="1" vertex="1">
          <mxGeometry x="1050" y="885" width="120" height="60" as="geometry" />
        </mxCell>
        <mxCell id="4ovjFaTYSwnEynzdkDj6-88" value="오적산@흉비&lt;br&gt;*치험례" style="whiteSpace=wrap;html=1;fontSize=11;strokeColor=default;" parent="1" vertex="1">
          <mxGeometry x="1243" y="885" width="120" height="60" as="geometry" />
        </mxCell>
        <mxCell id="4ovjFaTYSwnEynzdkDj6-94" value="" style="endArrow=none;html=1;rounded=0;fontSize=11;entryX=0;entryY=0.5;entryDx=0;entryDy=0;exitX=0;exitY=0.5;exitDx=0;exitDy=0;" parent="1" edge="1">
          <mxGeometry width="50" height="50" relative="1" as="geometry">
            <mxPoint x="1480" y="890" as="sourcePoint" />
            <mxPoint x="1480" y="795" as="targetPoint" />
            <Array as="points">
              <mxPoint x="1440" y="890" />
              <mxPoint x="1440" y="850" />
              <mxPoint x="1440" y="795" />
            </Array>
          </mxGeometry>
        </mxCell>
        <mxCell id="4ovjFaTYSwnEynzdkDj6-96" value="" style="endArrow=none;html=1;rounded=0;fontSize=11;entryX=0;entryY=0.5;entryDx=0;entryDy=0;exitX=0;exitY=0.5;exitDx=0;exitDy=0;" parent="1" source="4ovjFaTYSwnEynzdkDj6-72" target="4ovjFaTYSwnEynzdkDj6-59" edge="1">
          <mxGeometry width="50" height="50" relative="1" as="geometry">
            <mxPoint x="1420" y="760" as="sourcePoint" />
            <mxPoint x="1470" y="710" as="targetPoint" />
            <Array as="points">
              <mxPoint x="1440" y="990" />
              <mxPoint x="1440" y="850" />
              <mxPoint x="1440" y="700" />
            </Array>
          </mxGeometry>
        </mxCell>
        <mxCell id="4ovjFaTYSwnEynzdkDj6-102" value="" style="edgeStyle=orthogonalEdgeStyle;rounded=0;orthogonalLoop=1;jettySize=auto;html=1;fontSize=11;endArrow=classic;endFill=1;" parent="1" source="4ovjFaTYSwnEynzdkDj6-99" target="4ovjFaTYSwnEynzdkDj6-101" edge="1">
          <mxGeometry relative="1" as="geometry" />
        </mxCell>
        <mxCell id="4ovjFaTYSwnEynzdkDj6-99" value="감길탕&lt;br&gt;: 지각, 감초" style="whiteSpace=wrap;html=1;fontSize=11;strokeColor=default;" parent="1" vertex="1">
          <mxGeometry x="650" y="1025" width="120" height="60" as="geometry" />
        </mxCell>
        <mxCell id="4ovjFaTYSwnEynzdkDj6-104" value="" style="edgeStyle=orthogonalEdgeStyle;rounded=0;orthogonalLoop=1;jettySize=auto;html=1;fontSize=11;endArrow=classic;endFill=1;" parent="1" source="4ovjFaTYSwnEynzdkDj6-101" target="4ovjFaTYSwnEynzdkDj6-103" edge="1">
          <mxGeometry relative="1" as="geometry" />
        </mxCell>
        <mxCell id="4ovjFaTYSwnEynzdkDj6-108" value="" style="edgeStyle=orthogonalEdgeStyle;rounded=0;orthogonalLoop=1;jettySize=auto;html=1;fontSize=11;endArrow=classic;endFill=1;" parent="1" source="4ovjFaTYSwnEynzdkDj6-101" target="4ovjFaTYSwnEynzdkDj6-107" edge="1">
          <mxGeometry relative="1" as="geometry" />
        </mxCell>
        <mxCell id="4ovjFaTYSwnEynzdkDj6-101" value="지각육일탕" style="whiteSpace=wrap;html=1;fontSize=11;strokeColor=default;" parent="1" vertex="1">
          <mxGeometry x="850" y="1025" width="120" height="60" as="geometry" />
        </mxCell>
        <mxCell id="4ovjFaTYSwnEynzdkDj6-103" value="지궁산, 여신탕" style="whiteSpace=wrap;html=1;fontSize=11;strokeColor=default;" parent="1" vertex="1">
          <mxGeometry x="1050" y="1025" width="120" height="60" as="geometry" />
        </mxCell>
        <mxCell id="4ovjFaTYSwnEynzdkDj6-107" value="지실작약산&lt;br&gt;@출산(이산)" style="whiteSpace=wrap;html=1;fontSize=11;strokeColor=default;" parent="1" vertex="1">
          <mxGeometry x="850" y="1120" width="120" height="45" as="geometry" />
        </mxCell>
        <mxCell id="4ovjFaTYSwnEynzdkDj6-110" value="&lt;font style=&quot;font-size: 13px&quot;&gt;담열성 (흉만)&lt;br&gt;&lt;br&gt;시경반하탕&lt;br&gt;과루지실탕&lt;br&gt;복령보심탕&lt;br&gt;지축이진탕&lt;br&gt;지실작약산&lt;/font&gt;" style="whiteSpace=wrap;html=1;fontSize=11;strokeColor=default;" parent="1" vertex="1">
          <mxGeometry x="460" y="780" width="120" height="270" as="geometry" />
        </mxCell>
        <mxCell id="4ovjFaTYSwnEynzdkDj6-117" value="" style="edgeStyle=orthogonalEdgeStyle;rounded=0;orthogonalLoop=1;jettySize=auto;html=1;fontSize=13;endArrow=classic;endFill=1;" parent="1" source="4ovjFaTYSwnEynzdkDj6-114" target="4ovjFaTYSwnEynzdkDj6-116" edge="1">
          <mxGeometry relative="1" as="geometry" />
        </mxCell>
        <mxCell id="4ovjFaTYSwnEynzdkDj6-114" value="보생탕" style="rounded=0;whiteSpace=wrap;html=1;fontSize=13;strokeColor=default;" parent="1" vertex="1">
          <mxGeometry x="630" y="555" width="120" height="60" as="geometry" />
        </mxCell>
        <mxCell id="4ovjFaTYSwnEynzdkDj6-116" value="교애사물탕" style="rounded=0;whiteSpace=wrap;html=1;fontSize=13;strokeColor=default;" parent="1" vertex="1">
          <mxGeometry x="830" y="555" width="120" height="60" as="geometry" />
        </mxCell>
        <mxCell id="4ovjFaTYSwnEynzdkDj6-118" value="고방&lt;br&gt;:치자시탕&lt;br&gt;:다한 후 허열&lt;br&gt;콩 간대사 도움" style="whiteSpace=wrap;html=1;fontSize=13;strokeColor=default;" parent="1" vertex="1">
          <mxGeometry x="324" y="620" width="90" height="70" as="geometry" />
        </mxCell>
        <mxCell id="4ovjFaTYSwnEynzdkDj6-122" value="시호제&lt;br&gt;:시호가용골모려탕&lt;br&gt;시호소간산" style="whiteSpace=wrap;html=1;fontSize=13;strokeColor=default;" parent="1" vertex="1">
          <mxGeometry x="-21" y="560" width="120" height="60" as="geometry" />
        </mxCell>
        <mxCell id="OEPkOdysSpmX7XDhRAEk-6" value="" style="edgeStyle=orthogonalEdgeStyle;rounded=0;orthogonalLoop=1;jettySize=auto;html=1;" parent="1" source="OEPkOdysSpmX7XDhRAEk-3" target="OEPkOdysSpmX7XDhRAEk-5" edge="1">
          <mxGeometry relative="1" as="geometry" />
        </mxCell>
        <mxCell id="OEPkOdysSpmX7XDhRAEk-3" value="대이향산" style="rounded=0;whiteSpace=wrap;html=1;fontSize=13;strokeColor=default;" parent="1" vertex="1">
          <mxGeometry x="1035" y="130" width="120" height="60" as="geometry" />
        </mxCell>
        <mxCell id="OEPkOdysSpmX7XDhRAEk-5" value="소창음자" style="rounded=0;whiteSpace=wrap;html=1;fontSize=13;strokeColor=default;" parent="1" vertex="1">
          <mxGeometry x="1235" y="130" width="120" height="60" as="geometry" />
        </mxCell>
      </root>
    </mxGraphModel>
  </diagram>
</mxfile>
